/* XPM */
static char * C:\Users\gum_s\Downloads\textures\collect_xpm[] = {
"16 16 17 1",
" 	c #B8945F",
".	c #AF8F55",
"+	c #C29D62",
"@	c #967441",
"#	c #9F844D",
"$	c #005300",
"%	c #7E6237",
"&	c #DBFFEB",
"*	c #41F384",
"=	c #17DD62",
"-	c #67502C",
";	c #AFFDCD",
">	c #00AA2C",
",	c #002D00",
"'	c #009529",
")	c #82F6AD",
"!	c #007B18",
" . +++++ +++++ @",
"  ..@#.   ..  ##",
".   . $$$$#..  @",
"@%%@@$&**=$%--%-",
" +#+$&;**>=,..# ",
".  $&;;**>>=,  .",
"##.$;==;;>'>,###",
"--%$;==;)>!>,@%-",
" ++$;==;)>!>,+ #",
" . $;==))>!=,##@",
"+ .$;==)*!'=,# #",
"--%@$>'!!'),%---",
"+# ++$>'!=,#+ ++",
"..  ##,,,, . ...",
".##. .#@  .#####",
"-%%--%@@@%-%----"};
