/* XPM */
static char * C:\Users\gum_s\Downloads\textures\exit_xpm[] = {
"16 16 16 1",
" 	c #B8945F",
".	c #AF8F55",
"+	c #C29D62",
"@	c #967441",
"#	c #9F844D",
"$	c #727272",
"%	c #720000",
"&	c #BEBEBE",
"*	c #EBEBEB",
"=	c #7E6237",
"-	c #9C2626",
";	c #67502C",
">	c #8C1515",
",	c #810707",
"'	c #413421",
")	c #695433",
" . +++++ +++++ @",
"  ..@#.  $$$  ##",
".   . .%%&**$  @",
"@==@@%%--%&**$=;",
" +#%%>>>--%&**$ ",
". %>>->>>--%&*$.",
"#%>-->>>>>>,%$'#",
";%>->>>>>,%%%)';",
" %%>>>>,%%%%')'#",
" '%%>,%%%%''.''@",
"+)'%%%%%''..## #",
";;='%%'';=@==;;;",
"+# +#' #+++#+ ++",
"..  )'.##  . ...",
".##.''#@  .#####",
";==;;=@@@=;=;;;;"};
