/* XPM */
static char * C:\Users\gum_s\Downloads\textures\player_xpm[] = {
"64 64 22 1",
" 	c #B8945F",
".	c #AF8F55",
"+	c #C29D62",
"@	c #5C2D30",
"#	c #452020",
"$	c #967441",
"%	c #BF8769",
"&	c #D9A582",
"*	c #905243",
"=	c #9F844D",
"-	c #7E6237",
";	c #5C3528",
">	c #47251D",
",	c #67502C",
"'	c #040408",
")	c #753C2F",
"!	c #B37B62",
"~	c #33151A",
"{	c #83493B",
"]	c #693B31",
"^	c #302E31",
"/	c #1D1720",
"    ....    ++++@@@@@@@@@@@@@@@@@@@@############++++++++    $$$$",
"    ....    ++++@@@@@@@@@@@@@@@@@@@@############++++++++    $$$$",
"    ....    ++++@@@@@@@@@@@@@@@@@@@@############++++++++    $$$$",
"    ....    ++++@@@@@@@@@@@@@@@@@@@@############++++++++    $$$$",
"        ........@@@@%%%%&&&&%%%%%%%%********####        ========",
"        ........@@@@%%%%&&&&%%%%%%%%********####        ========",
"        ........@@@@%%%%&&&&%%%%%%%%********####        ========",
"        ........@@@@%%%%&&&&%%%%%%%%********####        ========",
"....            @@@@%%%%%%%%%%%%%%%%********####....        $$$$",
"....            @@@@%%%%%%%%%%%%%%%%********####....        $$$$",
"....            @@@@%%%%%%%%%%%%%%%%********####....        $$$$",
"....            @@@@%%%%%%%%%%%%%%%%********####....        $$$$",
"$$$$--------$$$$@@@@;;;;;;;;;;;;;;;;>>>>****####,,,,,,,,----,,,,",
"$$$$--------$$$$@@@@;;;;;;;;;;;;;;;;>>>>****####,,,,,,,,----,,,,",
"$$$$--------$$$$@@@@;;;;;;;;;;;;;;;;>>>>****####,,,,,,,,----,,,,",
"$$$$--------$$$$@@@@;;;;;;;;;;;;;;;;>>>>****####,,,,,,,,----,,,,",
"    ++++====++++@@@@''''****))))''''********####........====    ",
"    ++++====++++@@@@''''****))))''''********####........====    ",
"    ++++====++++@@@@''''****))))''''********####........====    ",
"    ++++====++++@@@@''''****))))''''********####........====    ",
"....        ....@@@@!!!!****))))!!!!********####            ....",
"....        ....@@@@!!!!****))))!!!!********####            ....",
"....        ....@@@@!!!!****))))!!!!********####            ....",
"....        ....@@@@!!!!****))))!!!!********####            ....",
"========....    @@@@!!!!****))))!!!!))))))))####....============",
"========....    @@@@!!!!****))))!!!!))))))))####....============",
"========....    @@@@!!!!****))))!!!!))))))))####....============",
"========....    @@@@!!!!****))))!!!!))))))))####....============",
",,,,,,,,--------~~~~>>>>~~~~~~~~~~~~>>>>>>>>~~~~----$$$$----,,,,",
",,,,,,,,--------~~~~>>>>~~~~~~~~~~~~>>>>>>>>~~~~----$$$$----,,,,",
",,,,,,,,--------~~~~>>>>~~~~~~~~~~~~>>>>>>>>~~~~----$$$$----,,,,",
",,,,,,,,--------~~~~>>>>~~~~~~~~~~~~>>>>>>>>~~~~----$$$$----,,,,",
"    ++++++++~~~~{{{{{{{{%%%%{{{{{{{{>>>>>>>>~~~~++++++++    ====",
"    ++++++++~~~~{{{{{{{{%%%%{{{{{{{{>>>>>>>>~~~~++++++++    ====",
"    ++++++++~~~~{{{{{{{{%%%%{{{{{{{{>>>>>>>>~~~~++++++++    ====",
"    ++++++++~~~~{{{{{{{{%%%%{{{{{{{{>>>>>>>>~~~~++++++++    ====",
"    ....    ~~~~~~~~>>>>>>>>>>>>>>>>~~~~~~~~~~~~....========$$$$",
"    ....    ~~~~~~~~>>>>>>>>>>>>>>>>~~~~~~~~~~~~....========$$$$",
"    ....    ~~~~~~~~>>>>>>>>>>>>>>>>~~~~~~~~~~~~....========$$$$",
"    ....    ~~~~~~~~>>>>>>>>>>>>>>>>~~~~~~~~~~~~....========$$$$",
"++++    ........~~~~]]]]]]]]>>>>]]]]>>>>>>>>~~~~========    ====",
"++++    ........~~~~]]]]]]]]>>>>]]]]>>>>>>>>~~~~========    ====",
"++++    ........~~~~]]]]]]]]>>>>]]]]>>>>>>>>~~~~========    ====",
"++++    ........~~~~]]]]]]]]>>>>]]]]>>>>>>>>~~~~========    ====",
",,,,,,,,----$$$$~~~~{{{{{{{{>>>>]]]]>>>>>>>>~~~~----,,,,,,,,,,,,",
",,,,,,,,----$$$$~~~~{{{{{{{{>>>>]]]]>>>>>>>>~~~~----,,,,,,,,,,,,",
",,,,,,,,----$$$$~~~~{{{{{{{{>>>>]]]]>>>>>>>>~~~~----,,,,,,,,,,,,",
",,,,,,,,----$$$$~~~~{{{{{{{{>>>>]]]]>>>>>>>>~~~~----,,,,,,,,,,,,",
"++++====    ++++~~~~{{{{{{{{>>>>{{{{>>>>>>>>~~~~++++    ++++++++",
"++++====    ++++~~~~{{{{{{{{>>>>{{{{>>>>>>>>~~~~++++    ++++++++",
"++++====    ++++~~~~{{{{{{{{>>>>{{{{>>>>>>>>~~~~++++    ++++++++",
"++++====    ++++~~~~{{{{{{{{>>>>{{{{>>>>>>>>~~~~++++    ++++++++",
"........        ====''''^^^^''''^^^^////''''....    ............",
"........        ====''''^^^^''''^^^^////''''....    ............",
"........        ====''''^^^^''''^^^^////''''....    ............",
"........        ====''''^^^^''''^^^^////''''....    ............",
"....========....    ''''''''''''''''''''''''====================",
"....========....    ''''''''''''''''''''''''====================",
"....========....    ''''''''''''''''''''''''====================",
"....========....    ''''''''''''''''''''''''====================",
",,,,--------,,,,,,,,----$$$$$$$$$$$$----,,,,----,,,,,,,,,,,,,,,,",
",,,,--------,,,,,,,,----$$$$$$$$$$$$----,,,,----,,,,,,,,,,,,,,,,",
",,,,--------,,,,,,,,----$$$$$$$$$$$$----,,,,----,,,,,,,,,,,,,,,,",
",,,,--------,,,,,,,,----$$$$$$$$$$$$----,,,,----,,,,,,,,,,,,,,,,"};
