/* XPM */
static char * C:\Users\gum_s\Downloads\textures\wall_xpm[] = {
"64 64 9 1",
" 	c #3B3020",
".	c #493924",
"+	c #453623",
"@	c #523F27",
"#	c #483924",
"$	c #4E3C25",
"%	c #4A3A24",
"&	c #503D26",
"*	c #483824",
"    ....++++@@@@@@@@++++@@@@@@@@####@@@@$$$$####@@@@....%%%%    ",
"    ....++++@@@@@@@@++++@@@@@@@@####@@@@$$$$####@@@@....%%%%    ",
"    ....++++@@@@@@@@++++@@@@@@@@####@@@@$$$$####@@@@....%%%%    ",
"    ....++++@@@@@@@@++++@@@@@@@@####@@@@$$$$####@@@@....%%%%    ",
"        ++++++++@@@@####++++########@@@@%%%%####$$$$....%%%%    ",
"        ++++++++@@@@####++++########@@@@%%%%####$$$$....%%%%    ",
"        ++++++++@@@@####++++########@@@@%%%%####$$$$....%%%%    ",
"        ++++++++@@@@####++++########@@@@%%%%####$$$$....%%%%    ",
"    ++++....++++@@@@####++++########@@@@%%%%%%%%@@@@%%%%%%%%    ",
"    ++++....++++@@@@####++++########@@@@%%%%%%%%@@@@%%%%%%%%    ",
"    ++++....++++@@@@####++++########@@@@%%%%%%%%@@@@%%%%%%%%    ",
"    ++++....++++@@@@####++++########@@@@%%%%%%%%@@@@%%%%%%%%    ",
"    ....@@@@++++$$$$&&&&&&&&####$$$$****%%%%$$$$@@@@++++....    ",
"    ....@@@@++++$$$$&&&&&&&&####$$$$****%%%%$$$$@@@@++++....    ",
"    ....@@@@++++$$$$&&&&&&&&####$$$$****%%%%$$$$@@@@++++....    ",
"    ....@@@@++++$$$$&&&&&&&&####$$$$****%%%%$$$$@@@@++++....    ",
"    ....%%%%####$$$$****&&&&@@@@%%%%****%%%%@@@@@@@@++++....    ",
"    ....%%%%####$$$$****&&&&@@@@%%%%****%%%%@@@@@@@@++++....    ",
"    ....%%%%####$$$$****&&&&@@@@%%%%****%%%%@@@@@@@@++++....    ",
"    ....%%%%####$$$$****&&&&@@@@%%%%****%%%%@@@@@@@@++++....    ",
"    ++++@@@@####$$$$****@@@@@@@@********++++@@@@$$$$++++++++    ",
"    ++++@@@@####$$$$****@@@@@@@@********++++@@@@$$$$++++++++    ",
"    ++++@@@@####$$$$****@@@@@@@@********++++@@@@$$$$++++++++    ",
"    ++++@@@@####$$$$****@@@@@@@@********++++@@@@$$$$++++++++    ",
"    ++++@@@@++++++++$$$$@@@@@@@@%%%%$$$$++++####$$$$@@@@++++    ",
"    ++++@@@@++++++++$$$$@@@@@@@@%%%%$$$$++++####$$$$@@@@++++    ",
"    ++++@@@@++++++++$$$$@@@@@@@@%%%%$$$$++++####$$$$@@@@++++    ",
"    ++++@@@@++++++++$$$$@@@@@@@@%%%%$$$$++++####$$$$@@@@++++    ",
"    ++++$$$$++++++++%%%%@@@@&&&&****$$$$++++%%%%$$$$$$$$....++++",
"    ++++$$$$++++++++%%%%@@@@&&&&****$$$$++++%%%%$$$$$$$$....++++",
"    ++++$$$$++++++++%%%%@@@@&&&&****$$$$++++%%%%$$$$$$$$....++++",
"    ++++$$$$++++++++%%%%@@@@&&&&****$$$$++++%%%%$$$$$$$$....++++",
"    ++++$$$$%%%%++++$$$$@@@@%%%%****$$$$++++%%%%####$$$$....++++",
"    ++++$$$$%%%%++++$$$$@@@@%%%%****$$$$++++%%%%####$$$$....++++",
"    ++++$$$$%%%%++++$$$$@@@@%%%%****$$$$++++%%%%####$$$$....++++",
"    ++++$$$$%%%%++++$$$$@@@@%%%%****$$$$++++%%%%####$$$$....++++",
"    ++++++++$$$$@@@@$$$$&&&&####%%%%%%%%@@@@########@@@@++++++++",
"    ++++++++$$$$@@@@$$$$&&&&####%%%%%%%%@@@@########@@@@++++++++",
"    ++++++++$$$$@@@@$$$$&&&&####%%%%%%%%@@@@########@@@@++++++++",
"    ++++++++$$$$@@@@$$$$&&&&####%%%%%%%%@@@@########@@@@++++++++",
"    ++++....####@@@@++++$$$$####@@@@%%%%@@@@####++++@@@@++++    ",
"    ++++....####@@@@++++$$$$####@@@@%%%%@@@@####++++@@@@++++    ",
"    ++++....####@@@@++++$$$$####@@@@%%%%@@@@####++++@@@@++++    ",
"    ++++....####@@@@++++$$$$####@@@@%%%%@@@@####++++@@@@++++    ",
"    ....++++@@@@$$$$++++########@@@@$$$$@@@@####++++++++++++    ",
"    ....++++@@@@$$$$++++########@@@@$$$$@@@@####++++++++++++    ",
"    ....++++@@@@$$$$++++########@@@@$$$$@@@@####++++++++++++    ",
"    ....++++@@@@$$$$++++########@@@@$$$$@@@@####++++++++++++    ",
"    ....++++@@@@++++++++####@@@@@@@@%%%%%%%%####&&&&++++....    ",
"    ....++++@@@@++++++++####@@@@@@@@%%%%%%%%####&&&&++++....    ",
"    ....++++@@@@++++++++####@@@@@@@@%%%%%%%%####&&&&++++....    ",
"    ....++++@@@@++++++++####@@@@@@@@%%%%%%%%####&&&&++++....    ",
"    ....++++@@@@++++@@@@####@@@@####@@@@++++&&&&@@@@++++....    ",
"    ....++++@@@@++++@@@@####@@@@####@@@@++++&&&&@@@@++++....    ",
"    ....++++@@@@++++@@@@####@@@@####@@@@++++&&&&@@@@++++....    ",
"    ....++++@@@@++++@@@@####@@@@####@@@@++++&&&&@@@@++++....    ",
"    ++++++++$$$$####$$$$@@@@@@@@++++@@@@++++++++@@@@++++++++    ",
"    ++++++++$$$$####$$$$@@@@@@@@++++@@@@++++++++@@@@++++++++    ",
"    ++++++++$$$$####$$$$@@@@@@@@++++@@@@++++++++@@@@++++++++    ",
"    ++++++++$$$$####$$$$@@@@@@@@++++@@@@++++++++@@@@++++++++    ",
"    ++++....$$$$####$$$$$$$$####++++%%%%%%%%++++@@@@....++++    ",
"    ++++....$$$$####$$$$$$$$####++++%%%%%%%%++++@@@@....++++    ",
"    ++++....$$$$####$$$$$$$$####++++%%%%%%%%++++@@@@....++++    ",
"    ++++....$$$$####$$$$$$$$####++++%%%%%%%%++++@@@@....++++    "};
